<svg aria-hidden="true" style="width:0;height:0;position:absolute;overflow:hidden" xmlns="http://www.w3.org/2000/svg"><defs><symbol id="icon-btn-bad" viewBox="0 0 32 32"><path stroke-linejoin="round" stroke-linecap="round" stroke-width="2.667" d="M2.787 17.889a1.34 1.34 0 0 0 .348 1.014 1.33 1.33 0 0 0 .982.43h2.55a1.335 1.335 0 0 0 1.334-1.334V4.666a1.334 1.334 0 0 0-1.334-1.334h-1.44a1.336 1.336 0 0 0-1.329 1.222L2.787 17.887h-.001zM12 17.75c0 .557.347 1.056.85 1.293 1.099.519 2.972 1.561 3.817 2.969 1.089 1.816 1.294 5.097 1.327 5.848.005.105.002.211.016.315.181 1.302 2.693-.219 3.657-1.827.523-.872.59-2.018.535-2.913-.059-.957-.34-1.882-.615-2.801L21 18.676h7.238a1.319 1.319 0 0 0 1.063-.528 1.332 1.332 0 0 0 .22-1.167l-3.58-12.677a1.33 1.33 0 0 0-1.284-.971H13.333A1.33 1.33 0 0 0 12 4.667V17.75z"/></symbol><symbol id="icon-btn-cool" viewBox="0 0 32 32"><path stroke-linejoin="round" stroke-linecap="round" stroke-width="2.667" d="M2.787 14.111a1.333 1.333 0 0 1 1.328-1.444H6.666c.736 0 1.333.597 1.333 1.333v13.333c0 .736-.597 1.333-1.333 1.333h-1.44c-.697 0-1.27-.535-1.328-1.218v-.005L2.787 14.11h-.001zM12 14.25c0-.557.347-1.056.85-1.293 1.099-.519 2.972-1.561 3.817-2.969 1.089-1.816 1.293-5.097 1.327-5.848.005-.105.003-.211.017-.315.18-1.302 2.693.219 3.657 1.827.523.872.59 2.018.535 2.913-.06.957-.34 1.882-.615 2.801l-.587 1.958h7.238a1.334 1.334 0 0 1 1.281 1.705l.002-.009-3.58 12.677a1.336 1.336 0 0 1-1.283.971H13.334a1.333 1.333 0 0 1-1.333-1.333V14.252z"/></symbol><symbol id="icon-poligon3" viewBox="0 0 45 32"><path d="M24.899 28.874c-.591.735-1.491 1.201-2.499 1.201s-1.908-.466-2.494-1.195l-.005-.006L1.613 5.997A3.2 3.2 0 0 1 4.113.8h36.576a3.2 3.2 0 0 1 2.491 5.203l.005-.006-18.282 22.877z"/></symbol><symbol id="icon-youtube" viewBox="0 0 32 32"><path d="M28.501 5.973c1.379.349 2.461 1.387 2.829 2.701.669 2.384.669 7.36.669 7.36s0 4.973-.667 7.357c-.371 1.315-1.453 2.307-2.832 2.659-2.496.64-12.501.64-12.501.64s-10.005 0-12.501-.64c-1.379-.352-2.461-1.344-2.832-2.659-.667-2.384-.667-7.36-.667-7.36s0-4.973.667-7.357a3.937 3.937 0 0 1 2.808-2.696l.027-.006C5.994 5.332 16 5.332 16 5.332s10.005 0 12.501.64zm-15.773 5.544v9.032l8.363-4.517-8.363-4.512z"/></symbol><symbol id="icon-instagram" viewBox="0 0 32 32"><path d="M32 2a2 2 0 1 1-3.999.001A2 2 0 0 1 32 2zM16 30C8.268 30 2 23.732 2 16S8.268 2 16 2s14 6.268 14 14-6.268 14-14 14zm0-4.667a9.333 9.333 0 1 0 0-18.666 9.333 9.333 0 1 0 0 18.666z"/></symbol><symbol id="icon-facebook" viewBox="0 0 32 32"><path d="M24 10.363h-5.904V7.04c0-1.248.963-1.539 1.643-1.539h4.165V.018l-5.736-.019c-6.371 0-7.821 4.091-7.821 6.707v3.653h-3.68v5.653h3.68v15.987h7.749V16.01h5.227L24 10.362z"/></symbol><symbol id="icon-marker-rectangle" viewBox="0 0 80 32"><path d="M16 0h48c8.837 0 16 7.163 16 16s-7.163 16-16 16H16C7.163 32 0 24.837 0 16S7.163 0 16 0z"/></symbol><symbol id="icon-marker-circle" viewBox="0 0 32 32"><path d="M32 16c0 8.837-7.163 16-16 16S0 24.837 0 16 7.163 0 16 0s16 7.163 16 16z"/></symbol><symbol id="icon-menu" viewBox="0 0 43 32"><path fill="#86e543" style="fill:var(--color1,#86e543)" d="M40.92 14.4H2.28c-1.259 0-2.28.681-2.28 1.52v.16c0 .839 1.021 1.52 2.28 1.52h38.64c1.259 0 2.28-.681 2.28-1.52v-.16c0-.839-1.021-1.52-2.28-1.52zM40.92 28.8H2.28c-1.259 0-2.28.681-2.28 1.52v.16C0 31.319 1.021 32 2.28 32h38.64c1.259 0 2.28-.681 2.28-1.52v-.16c0-.839-1.021-1.52-2.28-1.52zM40.92 0H2.28C1.021 0 0 .681 0 1.52v.16C0 2.519 1.021 3.2 2.28 3.2h38.64c1.259 0 2.28-.681 2.28-1.52v-.16C43.2.681 42.179 0 40.92 0z"/></symbol><symbol id="icon-circle-cross" viewBox="0 0 40 54"><path fill="none" stroke="#86e543" style="stroke:var(--color1,#86e543)" stroke-linejoin="round" stroke-linecap="round" stroke-width="1.412" d="M21.294 10.706 10.706 21.294m0-10.588 10.588 10.588M16 30.706c8.122 0 14.706-6.584 14.706-14.706S24.122 1.294 16 1.294 1.294 7.878 1.294 16 7.878 30.706 16 30.706z"/></symbol><symbol id="icon-cross" viewBox="0 0 32 32"><path fill="none" stroke="#86e543" style="stroke:var(--color1,#86e543)" stroke-linecap="round" stroke-width="3.556" d="M29.629 30.222 2.37 1.778m27.259 0L2.37 30.222"/></symbol></defs></svg>