<svg aria-hidden="true" style="position: absolute; width: 0; height: 0; overflow: hidden;" version="1.1" xmlns="http://www.w3.org/2000/svg" xmlns:xlink="http://www.w3.org/1999/xlink">
<defs>
<symbol id="icon-btn-bad" viewBox="0 0 32 32">
<path stroke-linejoin="round" stroke-linecap="round" stroke-miterlimit="4" stroke-width="2.6667" d="M2.787 17.889c-0.015 0.184 0.008 0.369 0.068 0.544s0.155 0.335 0.28 0.47c0.125 0.136 0.277 0.244 0.446 0.318s0.352 0.112 0.536 0.112h2.55c0.354 0 0.693-0.14 0.943-0.391s0.391-0.589 0.391-0.943v-13.333c0-0.354-0.141-0.693-0.391-0.943s-0.589-0.391-0.943-0.391h-1.44c-0.334 0-0.657 0.126-0.903 0.352s-0.398 0.537-0.426 0.87l-1.111 13.333h-0.001zM12 17.75c0 0.557 0.347 1.056 0.85 1.293 1.099 0.519 2.972 1.561 3.817 2.969 1.089 1.816 1.294 5.097 1.327 5.848 0.005 0.105 0.002 0.211 0.016 0.315 0.181 1.302 2.693-0.219 3.657-1.827 0.523-0.872 0.59-2.018 0.535-2.913-0.059-0.957-0.34-1.882-0.615-2.801l-0.587-1.958h7.238c0.206 0 0.409-0.048 0.594-0.139s0.345-0.225 0.469-0.389 0.209-0.355 0.247-0.558c0.038-0.202 0.029-0.411-0.027-0.609l-3.58-12.677c-0.079-0.28-0.247-0.526-0.479-0.701s-0.514-0.27-0.805-0.27h-11.324c-0.354 0-0.693 0.14-0.943 0.391s-0.39 0.589-0.39 0.943v13.083z"></path>
</symbol>
<symbol id="icon-btn-cool" viewBox="0 0 32 32">
<path stroke-linejoin="round" stroke-linecap="round" stroke-miterlimit="4" stroke-width="2.6667" d="M2.787 14.111c-0.003-0.033-0.005-0.072-0.005-0.111 0-0.736 0.597-1.333 1.333-1.333 0 0 0.001 0 0.001 0h2.55c0.736 0 1.333 0.597 1.333 1.333v0 13.333c0 0.736-0.597 1.333-1.333 1.333v0h-1.44c-0.697-0-1.27-0.535-1.328-1.218l-0-0.005-1.111-13.333h-0.001zM12 14.25c0-0.557 0.347-1.056 0.85-1.293 1.099-0.519 2.972-1.561 3.817-2.969 1.089-1.816 1.293-5.097 1.327-5.848 0.005-0.105 0.003-0.211 0.017-0.315 0.18-1.302 2.693 0.219 3.657 1.827 0.523 0.872 0.59 2.018 0.535 2.913-0.060 0.957-0.34 1.882-0.615 2.801l-0.587 1.958h7.238c0.736 0 1.333 0.598 1.333 1.334 0 0.129-0.018 0.253-0.052 0.371l0.002-0.009-3.58 12.677c-0.163 0.565-0.676 0.971-1.283 0.971-0 0-0.001 0-0.001 0h-11.324c-0.736 0-1.333-0.597-1.333-1.333v0-13.083z"></path>
</symbol>
<symbol id="icon-poligon3" viewBox="0 0 45 32">
<path d="M24.899 28.874c-0.591 0.735-1.491 1.201-2.499 1.201s-1.908-0.466-2.494-1.195l-0.005-0.006-18.288-22.877c-0.436-0.542-0.699-1.239-0.699-1.997 0-1.767 1.432-3.199 3.199-3.2h36.576c1.765 0.003 3.195 1.434 3.195 3.2 0 0.758-0.264 1.455-0.704 2.003l0.005-0.006-18.282 22.877z"></path>
</symbol>
<symbol id="icon-youtube" viewBox="0 0 32 32">
<path d="M28.501 5.973c1.379 0.349 2.461 1.387 2.829 2.701 0.669 2.384 0.669 7.36 0.669 7.36s0 4.973-0.667 7.357c-0.371 1.315-1.453 2.307-2.832 2.659-2.496 0.64-12.501 0.64-12.501 0.64s-10.005 0-12.501-0.64c-1.379-0.352-2.461-1.344-2.832-2.659-0.667-2.384-0.667-7.36-0.667-7.36s0-4.973 0.667-7.357c0.404-1.34 1.47-2.362 2.808-2.696l0.027-0.006c2.493-0.64 12.499-0.64 12.499-0.64s10.005 0 12.501 0.64zM12.728 11.517v9.032l8.363-4.517-8.363-4.512z"></path>
</symbol>
<symbol id="icon-instagram" viewBox="0 0 32 32">
<path d="M32 2c0 1.105-0.895 2-2 2s-2-0.895-2-2c0-1.105 0.895-2 2-2s2 0.895 2 2z"></path>
<path d="M16 30v0c-7.732 0-14-6.268-14-14s6.268-14 14-14v0c7.732 0 14 6.268 14 14s-6.268 14-14 14zM16 25.333c5.155 0 9.333-4.179 9.333-9.333s-4.179-9.333-9.333-9.333v0c-5.155 0-9.333 4.179-9.333 9.333s4.179 9.333 9.333 9.333v0z"></path>
</symbol>
<symbol id="icon-facebook" viewBox="0 0 32 32">
<path d="M24 10.363h-5.904v-3.323c0-1.248 0.963-1.539 1.643-1.539h4.165v-5.483l-5.736-0.019c-6.371 0-7.821 4.091-7.821 6.707v3.653h-3.68v5.653h3.68v15.987h7.749v-15.989h5.227l0.677-5.648z"></path>
</symbol>
<symbol id="icon-marker-rectangle" viewBox="0 0 80 32">
<path d="M16 0h48c8.837 0 16 7.163 16 16s-7.163 16-16 16h-48c-8.837 0-16-7.163-16-16s7.163-16 16-16z"></path>
</symbol>
<symbol id="icon-marker-circle" viewBox="0 0 32 32">
<path d="M32 16c0 8.837-7.163 16-16 16s-16-7.163-16-16c0-8.837 7.163-16 16-16s16 7.163 16 16z"></path>
</symbol>
<symbol id="icon-menu-outline" viewBox="0 0 405 270">
<path fill="#86e543" style="fill: var(--color1, #86e543)" d="M383.625 112.5h-362.25c-11.805 0-21.375 5.745-21.375 12.825v1.35c0 7.080 9.57 12.825 21.375 12.825h362.25c11.805 0 21.375-5.745 21.375-12.825v-1.35c0-7.080-9.57-12.825-21.375-12.825zM383.625 225h-362.25c-11.805 0-21.375 5.745-21.375 12.825v1.35c0 7.080 9.57 12.825 21.375 12.825h362.25c11.805 0 21.375-5.745 21.375-12.825v-1.35c0-7.080-9.57-12.825-21.375-12.825zM383.625 0h-362.25c-11.805 0-21.375 5.745-21.375 12.825v1.35c0 7.080 9.57 12.825 21.375 12.825h362.25c11.805 0 21.375-5.745 21.375-12.825v-1.35c0-7.080-9.57-12.825-21.375-12.825z"></path>
</symbol>
<symbol id="icon-circle-cross" viewBox="0 0 32 32">
<path fill="none" stroke="#86e543" style="stroke: var(--color1, #86e543)" stroke-linejoin="round" stroke-linecap="round" stroke-miterlimit="4" stroke-width="1.4118" d="M21.294 10.706l-10.588 10.588M10.706 10.706l10.588 10.588M16 30.706c8.122 0 14.706-6.584 14.706-14.706s-6.584-14.706-14.706-14.706c-8.122 0-14.706 6.584-14.706 14.706s6.584 14.706 14.706 14.706z"></path>
</symbol>
<symbol id="icon-cross" viewBox="0 0 32 32">
<path fill="none" stroke="#86e543" style="stroke: var(--color1, #86e543)" stroke-linejoin="miter" stroke-linecap="round" stroke-miterlimit="4" stroke-width="3.5556" d="M29.629 30.222l-27.259-28.444M29.629 1.778l-27.259 28.444"></path>
</symbol>
</defs>
</svg>

